<svg width="32" height="32" viewBox="0 0 32 32" fill="none" xmlns="http://www.w3.org/2000/svg">
<g filter="url(#filter0_b_1222_6436)">
<rect width="32" height="32" rx="6" fill="#09273B"/>
<path d="M11.8017 8.66663H10.155V17.9128H11.8017V8.66663Z" fill="white"/>
<path d="M14.3121 10.6888H12.6654V17.9127H14.3121V10.6888Z" fill="white"/>
<path d="M16.8238 12.7123H15.1771V17.9131H16.8238V12.7123Z" fill="white"/>
<path d="M19.3342 14.4459H17.6875V17.9131H19.3342V14.4459Z" fill="white"/>
<path d="M21.8446 16.0052H20.1979V17.9133H21.8446V16.0052Z" fill="white"/>
<path d="M29.5082 20.1332C28.6945 20.1332 27.8808 20.1332 27.067 20.1332C27.067 15.5222 27.067 10.9113 27.067 6.29961C27.8834 6.29961 28.6989 6.29961 29.5152 6.29961C29.895 6.29961 30.2879 6.00675 29.692 6.00675C28.7103 6.00675 27.7276 6.00675 26.7459 6.00675C26.6759 6.00121 26.6042 6.00121 26.5333 6.00675C19.5544 6.00675 12.5755 6.00675 5.59576 6.00675C5.51526 5.99775 5.42514 5.99775 5.33239 6.00675C4.38303 6.00675 3.43367 6.00675 2.48431 6.00675C2.10457 6.00675 1.7117 6.29961 2.30757 6.29961C3.18343 6.29961 4.06016 6.29961 4.93602 6.29961C4.93602 10.9106 4.93602 15.5222 4.93602 20.1332C4.05754 20.1332 3.17905 20.1332 2.30144 20.1332C1.70645 20.1332 2.11245 20.4205 2.49131 20.4205C6.14525 20.4205 9.80007 20.4205 13.454 20.4205C12.3944 22.2088 11.3348 23.9978 10.2752 25.7861C10.1921 25.9266 11.0154 26.1136 11.1362 25.9107C11.7793 24.8251 12.4224 23.7388 13.0664 22.6533C15.0237 22.6533 16.9811 22.6533 18.9384 22.6533C19.5798 23.7354 20.2211 24.8182 20.8625 25.9003C20.9833 26.1039 21.8092 25.9342 21.7279 25.7958C20.6665 24.004 19.6043 22.2122 18.5429 20.4205C22.2616 20.4205 25.9803 20.4205 29.699 20.4205C30.2931 20.4205 29.888 20.1332 29.5082 20.1332ZM5.80576 6.29961C12.6009 6.29961 19.3969 6.29961 26.192 6.29961C26.192 10.9106 26.192 15.5222 26.192 20.1332C19.3969 20.1332 12.6009 20.1332 5.80576 20.1332C5.80576 15.5222 5.80576 10.9113 5.80576 6.29961ZM18.7652 22.3618C16.9233 22.3618 15.0806 22.3618 13.2388 22.3618C13.622 21.7145 14.0052 21.0678 14.3885 20.4212C15.4638 20.4212 16.5392 20.4212 17.6154 20.4212C17.9987 21.0678 18.3819 21.7145 18.7652 22.3618Z" fill="white"/>
</g>
<defs>
<filter id="filter0_b_1222_6436" x="-50" y="-50" width="132" height="132" filterUnits="userSpaceOnUse" color-interpolation-filters="sRGB">
<feFlood flood-opacity="0" result="BackgroundImageFix"/>
<feGaussianBlur in="BackgroundImageFix" stdDeviation="25"/>
<feComposite in2="SourceAlpha" operator="in" result="effect1_backgroundBlur_1222_6436"/>
<feBlend mode="normal" in="SourceGraphic" in2="effect1_backgroundBlur_1222_6436" result="shape"/>
</filter>
</defs>
</svg>
