<svg width="30" height="30" viewBox="0 0 30 30" fill="none" xmlns="http://www.w3.org/2000/svg">
<g id="currency-dollar">
<path id="Icon" d="M17.493 11.9054C17.855 12.3225 18.4866 12.3673 18.9037 12.0053C19.3208 11.6433 19.3656 11.0118 19.0036 10.5946L17.493 11.9054ZM12.507 18.0946C12.1451 17.6775 11.5135 17.6327 11.0963 17.9947C10.6792 18.3567 10.6345 18.9882 10.9964 19.4054L12.507 18.0946ZM16 8.75C16 8.19772 15.5523 7.75 15 7.75C14.4477 7.75 14 8.19772 14 8.75H16ZM14 21.25C14 21.8023 14.4477 22.25 15 22.25C15.5523 22.25 16 21.8023 16 21.25L14 21.25ZM25.25 15C25.25 20.6609 20.6609 25.25 15 25.25V27.25C21.7655 27.25 27.25 21.7655 27.25 15H25.25ZM15 25.25C9.33908 25.25 4.75 20.6609 4.75 15H2.75C2.75 21.7655 8.23451 27.25 15 27.25V25.25ZM4.75 15C4.75 9.33908 9.33908 4.75 15 4.75V2.75C8.23451 2.75 2.75 8.23451 2.75 15H4.75ZM15 4.75C20.6609 4.75 25.25 9.33908 25.25 15H27.25C27.25 8.23451 21.7655 2.75 15 2.75V4.75ZM15 14C14.1344 14 13.3959 13.7643 12.903 13.4357C12.4032 13.1025 12.25 12.752 12.25 12.5H10.25C10.25 13.6287 10.9362 14.5282 11.7936 15.0998C12.658 15.6761 13.7946 16 15 16V14ZM12.25 12.5C12.25 12.248 12.4032 11.8975 12.903 11.5643C13.3959 11.2357 14.1344 11 15 11V9C13.7946 9 12.658 9.32392 11.7936 9.90018C10.9362 10.4718 10.25 11.3713 10.25 12.5H12.25ZM15 11C16.1814 11 17.083 11.4329 17.493 11.9054L19.0036 10.5946C18.1168 9.57264 16.5947 9 15 9V11ZM15 16C15.8656 16 16.6041 16.2357 17.097 16.5643C17.5968 16.8975 17.75 17.248 17.75 17.5H19.75C19.75 16.3713 19.0638 15.4718 18.2064 14.9002C17.342 14.3239 16.2054 14 15 14V16ZM14 8.75V10H16V8.75H14ZM14 20L14 21.25L16 21.25L16 20L14 20ZM15 19C13.8186 19 12.917 18.5671 12.507 18.0946L10.9964 19.4054C11.8832 20.4274 13.4054 21 15 21L15 19ZM17.75 17.5C17.75 17.752 17.5968 18.1025 17.097 18.4357C16.6041 18.7643 15.8657 19 15 19V21C16.2054 21 17.342 20.6761 18.2064 20.0998C19.0638 19.5282 19.75 18.6287 19.75 17.5H17.75ZM14 10L14 20L16 20L16 10L14 10Z" fill="black"/>
</g>
</svg>
