<svg width="32" height="32" viewBox="0 0 32 32" fill="none" xmlns="http://www.w3.org/2000/svg">
<g filter="url(#filter0_b_1222_6428)">
<rect width="32" height="32" rx="6" fill="#09273B"/>
<path d="M29.343 11.8333H26.0689L25.1589 9.66667C24.2237 7.43906 21.9919 6 19.4725 6H12.5272C10.0082 6 7.7759 7.43906 6.8402 9.66667L5.9302 11.8333H2.6566C2.22949 11.8333 1.91613 12.2156 2.02004 12.6099L2.34816 13.8599C2.4209 14.138 2.6834 14.3333 2.98472 14.3333H4.0823C3.34785 14.9443 2.8748 15.8323 2.8748 16.8333V19.3333C2.8748 20.1729 3.21168 20.9307 3.7498 21.5172V24.3333C3.7498 25.2536 4.53348 26 5.49981 26H7.24981C8.21614 26 8.99981 25.2536 8.99981 24.3333V22.6667H22.9998V24.3333C22.9998 25.2536 23.7835 26 24.7498 26H26.4998C27.4662 26 28.2498 25.2536 28.2498 24.3333V21.5172C28.788 20.9312 29.1248 20.1734 29.1248 19.3333V16.8333C29.1248 15.8323 28.6518 14.9443 27.9179 14.3333H29.0155C29.3168 14.3333 29.5793 14.138 29.652 13.8599L29.9802 12.6099C30.0835 12.2156 29.7701 11.8333 29.343 11.8333ZM10.0897 10.9047C10.4884 9.95573 11.4536 9.33333 12.5272 9.33333H19.4725C20.546 9.33333 21.5112 9.95573 21.9099 10.9047L22.9998 13.5H8.99981L10.0897 10.9047ZM7.24981 19.3229C6.19981 19.3229 5.49981 18.6583 5.49981 17.6615C5.49981 16.6646 6.19981 16 7.24981 16C8.29981 16 9.87481 17.4953 9.87481 18.4922C9.87481 19.4891 8.29981 19.3229 7.24981 19.3229ZM24.7498 19.3229C23.6998 19.3229 22.1248 19.4891 22.1248 18.4922C22.1248 17.4953 23.6998 16 24.7498 16C25.7998 16 26.4998 16.6646 26.4998 17.6615C26.4998 18.6583 25.7998 19.3229 24.7498 19.3229Z" fill="white"/>
</g>
<defs>
<filter id="filter0_b_1222_6428" x="-50" y="-50" width="132" height="132" filterUnits="userSpaceOnUse" color-interpolation-filters="sRGB">
<feFlood flood-opacity="0" result="BackgroundImageFix"/>
<feGaussianBlur in="BackgroundImageFix" stdDeviation="25"/>
<feComposite in2="SourceAlpha" operator="in" result="effect1_backgroundBlur_1222_6428"/>
<feBlend mode="normal" in="SourceGraphic" in2="effect1_backgroundBlur_1222_6428" result="shape"/>
</filter>
</defs>
</svg>
