<svg width="90" height="51" viewBox="0 0 90 51" fill="none" xmlns="http://www.w3.org/2000/svg">
<g id="Group 39483">
<g id="Group 39481">
<circle id="Ellipse 901" cx="5.01001" cy="5.50489" r="4.26074" stroke="black"/>
<circle id="Ellipse 904" cx="5.01001" cy="18.8349" r="4.26074" stroke="black"/>
<circle id="Ellipse 907" cx="5.01001" cy="32.165" r="4.26074" stroke="black"/>
<circle id="Ellipse 910" cx="5.01001" cy="45.495" r="4.26074" stroke="black"/>
<circle id="Ellipse 902" cx="20.2437" cy="5.50492" r="4.26074" stroke="black"/>
<circle id="Ellipse 905" cx="20.2437" cy="18.8349" r="4.26074" stroke="black"/>
<circle id="Ellipse 908" cx="20.2437" cy="32.165" r="4.26074" stroke="black"/>
<circle id="Ellipse 911" cx="20.2437" cy="45.495" r="4.26074" stroke="black"/>
<circle id="Ellipse 903" cx="35.4795" cy="5.50492" r="4.26074" stroke="black"/>
<circle id="Ellipse 906" cx="35.4795" cy="18.8349" r="4.26074" stroke="black"/>
<circle id="Ellipse 909" cx="35.4795" cy="32.165" r="4.26074" stroke="black"/>
<circle id="Ellipse 912" cx="35.4795" cy="45.495" r="4.26074" stroke="black"/>
</g>
<g id="Group 39482">
<circle id="Ellipse 901_2" cx="54.5227" cy="5.50489" r="4.26074" stroke="black"/>
<circle id="Ellipse 904_2" cx="54.5225" cy="18.8349" r="4.26074" stroke="black"/>
<circle id="Ellipse 907_2" cx="54.5225" cy="32.1651" r="4.26074" stroke="black"/>
<circle id="Ellipse 910_2" cx="54.5225" cy="45.4951" r="4.26074" stroke="black"/>
<circle id="Ellipse 902_2" cx="69.7563" cy="5.50492" r="4.26074" stroke="black"/>
<circle id="Ellipse 905_2" cx="69.7563" cy="18.8349" r="4.26074" stroke="black"/>
<circle id="Ellipse 908_2" cx="69.7563" cy="32.1651" r="4.26074" stroke="black"/>
<circle id="Ellipse 911_2" cx="69.7563" cy="45.4951" r="4.26074" stroke="black"/>
<circle id="Ellipse 903_2" cx="84.991" cy="5.50492" r="4.26074" stroke="black"/>
<circle id="Ellipse 906_2" cx="84.991" cy="18.8349" r="4.26074" stroke="black"/>
<circle id="Ellipse 909_2" cx="84.991" cy="32.1651" r="4.26074" stroke="black"/>
<circle id="Ellipse 912_2" cx="84.991" cy="45.4951" r="4.26074" stroke="black"/>
</g>
</g>
</svg>
