<svg width="32" height="32" viewBox="0 0 32 32" fill="none" xmlns="http://www.w3.org/2000/svg">
<g filter="url(#filter0_b_1222_6424)">
<rect width="32" height="32" rx="6" fill="#09273B"/>
<path d="M20.9719 6.00024C25.8213 6.04288 26.797 9.50898 26.6787 11.2367C26.0464 11.1941 25.1855 11.4144 24.8341 11.5298C24.0149 11.7697 23.4142 12.3027 22.8408 13.1821C22.535 13.6084 22.4039 14.9808 22.4039 15.9535C22.322 16.8729 21.7076 17.4458 20.9294 17.5658H11.2633C10.5944 17.5658 9.66598 17.1261 9.54311 15.8736C9.53219 15.3086 9.54311 14.208 9.17449 13.2354C8.66934 11.6897 6.51221 11.2367 5.23036 11.2367C5.07745 9.06217 6.66239 6.34668 10.0498 6.00024H20.9719Z" fill="white"/>
<path d="M10.4032 18.6582H21.7213C22.6498 18.6582 23.5235 17.1792 23.5235 15.3671C23.8102 12.3824 27.4009 11.1833 29.4624 13.7149C30.656 15.1805 29.913 18.5116 26.7183 18.6582V22.2025C26.6964 23.1618 25.4895 24.6275 24.5884 24.774V25.9999H21.2981V24.9739H10.6354V25.9999H7.38606V24.8007C6.15732 24.361 5.36546 23.2151 5.21521 22.1758V18.6582C1.68736 18.4663 1.50175 15.0473 2.58025 13.7148C3.95924 12.1959 6.21193 11.7162 7.83653 13.7148C8.4509 14.3278 8.42359 15.7668 8.53281 16.5263C8.84956 17.7521 9.4612 18.5116 10.4032 18.6582Z" fill="white"/>
</g>
<defs>
<filter id="filter0_b_1222_6424" x="-50" y="-50" width="132" height="132" filterUnits="userSpaceOnUse" color-interpolation-filters="sRGB">
<feFlood flood-opacity="0" result="BackgroundImageFix"/>
<feGaussianBlur in="BackgroundImageFix" stdDeviation="25"/>
<feComposite in2="SourceAlpha" operator="in" result="effect1_backgroundBlur_1222_6424"/>
<feBlend mode="normal" in="SourceGraphic" in2="effect1_backgroundBlur_1222_6424" result="shape"/>
</filter>
</defs>
</svg>
