<svg width="32" height="32" viewBox="0 0 32 32" fill="none" xmlns="http://www.w3.org/2000/svg">
<g filter="url(#filter0_b_1222_6402)">
<rect width="32" height="32" rx="6" fill="#09273B"/>
<path d="M29.9418 15.4437L22.3296 9.37896C22.2106 9.27405 22.0615 9.2034 21.9001 9.17559C21.7387 9.14778 21.5722 9.164 21.4206 9.22227C21.2689 9.28054 21.1388 9.37837 21.0459 9.5039C20.953 9.62943 20.9013 9.77727 20.8971 9.9295V12.1007H2.65165C2.4291 12.1007 2.21565 12.1828 2.05828 12.3288C1.90091 12.4749 1.8125 12.6729 1.8125 12.8795V19.1091C1.8125 19.3156 1.90091 19.5137 2.05828 19.6597C2.21565 19.8058 2.4291 19.8878 2.65165 19.8878H20.8971V22.059C20.9983 22.5666 21.278 22.8262 21.7363 22.8377C21.8465 22.8378 21.9556 22.8176 22.0574 22.7785C22.1592 22.7393 22.2517 22.6819 22.3296 22.6096L29.9418 16.5448C30.0991 16.3988 30.1875 16.2007 30.1875 15.9943C30.1875 15.7878 30.0991 15.5898 29.9418 15.4437Z" fill="white"/>
<path d="M5.14443 17.2582V16.7586H5.67988C5.81552 16.7586 5.90477 16.7087 5.9476 16.6088L6.02792 16.4339L4.63576 13.7614H5.25152L6.26887 15.7346H6.37596L7.31299 13.7614H7.92875L6.4295 16.8336C6.29385 17.1167 6.04398 17.2582 5.67988 17.2582H5.14443ZM8.09169 17.2582V14.7604H8.62713V15.9094L9.75157 14.7604H10.3941L9.18935 15.9843L10.4477 17.2582H9.80512L8.62713 16.0593V17.2582H8.09169ZM10.876 18.2573V14.7604H11.3579L11.4115 15.0602H11.4382C11.4954 15.0002 11.5436 14.9536 11.5828 14.9203C11.622 14.8837 11.706 14.8404 11.8345 14.7904C11.9666 14.7371 12.1111 14.7105 12.2682 14.7105C12.6252 14.7105 12.9196 14.8287 13.1517 15.0652C13.3837 15.3016 13.4997 15.6163 13.4997 16.0093C13.4997 16.4023 13.3837 16.717 13.1517 16.9535C12.9196 17.1899 12.6252 17.3081 12.2682 17.3081C11.9005 17.3081 11.6239 17.1916 11.4382 16.9584H11.4115V18.2573H10.876ZM11.631 16.6238C11.7809 16.7803 11.9666 16.8585 12.1879 16.8585C12.4092 16.8585 12.593 16.7803 12.7394 16.6238C12.8893 16.4672 12.9643 16.2624 12.9643 16.0093C12.9643 15.7562 12.8893 15.5514 12.7394 15.3949C12.593 15.2384 12.4092 15.1601 12.1879 15.1601C11.9666 15.1601 11.7809 15.2384 11.631 15.3949C11.4847 15.5514 11.4115 15.7562 11.4115 16.0093C11.4115 16.2624 11.4847 16.4672 11.631 16.6238ZM14.1676 17.2582V14.7604H14.703V16.5588H14.8101L15.7204 14.7604H16.4968V17.2582H15.9613V15.4598H15.8542L14.944 17.2582H14.1676ZM17.918 17.2582V15.235H17.0345V14.7604H19.3369V15.235H18.4534V17.2582H17.918ZM20.4879 17.2582V15.235H19.6044V14.7604H21.9069V15.235H21.0234V17.2582H20.4879ZM23.272 15.9594H24.0217V15.1601H23.272C23.1364 15.1601 23.0257 15.1984 22.9401 15.275C22.858 15.3516 22.8169 15.4465 22.8169 15.5597C22.8169 15.673 22.858 15.7679 22.9401 15.8445C23.0257 15.921 23.1364 15.9594 23.272 15.9594ZM22.2279 17.2582L23.1649 16.359C22.9293 16.359 22.7223 16.2841 22.5438 16.1342C22.3689 15.9843 22.2815 15.7929 22.2815 15.5597C22.2815 15.3299 22.3671 15.1401 22.5385 14.9902C22.7134 14.837 22.9401 14.7604 23.2185 14.7604H24.5571V17.2582H24.0217V16.359H23.8075L22.8704 17.2582H22.2279Z" fill="#09273B"/>
</g>
<defs>
<filter id="filter0_b_1222_6402" x="-50" y="-50" width="132" height="132" filterUnits="userSpaceOnUse" color-interpolation-filters="sRGB">
<feFlood flood-opacity="0" result="BackgroundImageFix"/>
<feGaussianBlur in="BackgroundImageFix" stdDeviation="25"/>
<feComposite in2="SourceAlpha" operator="in" result="effect1_backgroundBlur_1222_6402"/>
<feBlend mode="normal" in="SourceGraphic" in2="effect1_backgroundBlur_1222_6402" result="shape"/>
</filter>
</defs>
</svg>
