<svg width="30" height="30" viewBox="0 0 30 30" fill="none" xmlns="http://www.w3.org/2000/svg">
<g id="Layer 2">
<path id="Vector" d="M15 30C12.0333 30 9.13319 29.1203 6.66645 27.472C4.19971 25.8238 2.27713 23.4811 1.14181 20.7403C0.00649927 17.9994 -0.290551 14.9834 0.288227 12.0736C0.867006 9.16393 2.29562 6.49119 4.3934 4.3934C6.49119 2.29562 9.16393 0.867006 12.0736 0.288227C14.9834 -0.290551 17.9994 0.00649927 20.7403 1.14181C23.4811 2.27713 25.8238 4.19971 27.472 6.66645C29.1203 9.13319 30 12.0333 30 15C30 18.9783 28.4196 22.7936 25.6066 25.6066C22.7936 28.4196 18.9783 30 15 30ZM15 2.3077C12.4897 2.3077 10.0358 3.05209 7.94854 4.44674C5.8613 5.84139 4.23449 7.82365 3.27384 10.1429C2.31319 12.4621 2.06184 15.0141 2.55158 17.4762C3.04131 19.9382 4.25014 22.1998 6.02519 23.9748C7.80024 25.7499 10.0618 26.9587 12.5239 27.4484C14.9859 27.9382 17.5379 27.6868 19.8571 26.7262C22.1764 25.7655 24.1586 24.1387 25.5533 22.0515C26.9479 19.9642 27.6923 17.5103 27.6923 15C27.6923 11.6338 26.3551 8.40546 23.9748 6.02519C21.5946 3.64492 18.3662 2.3077 15 2.3077Z" fill="black"/>
<path id="Vector_2" d="M21.3465 22.4998C21.1946 22.5007 21.0441 22.4716 20.9035 22.4141C20.7629 22.3567 20.635 22.2721 20.5272 22.1652L14.1811 15.819C14.0741 15.7112 13.9895 15.5833 13.9321 15.4428C13.8747 15.3022 13.8456 15.1516 13.8465 14.9998V5.76902C13.8465 5.463 13.968 5.16952 14.1844 4.95313C14.4008 4.73674 14.6943 4.61517 15.0003 4.61517C15.3063 4.61517 15.5998 4.73674 15.8162 4.95313C16.0326 5.16952 16.1541 5.463 16.1541 5.76902V14.5267L22.1657 20.5267C22.2738 20.634 22.3597 20.7616 22.4183 20.9022C22.4768 21.0428 22.507 21.1936 22.507 21.3459C22.507 21.4983 22.4768 21.6491 22.4183 21.7897C22.3597 21.9303 22.2738 22.0579 22.1657 22.1652C22.0579 22.2721 21.93 22.3567 21.7894 22.4141C21.6488 22.4716 21.4983 22.5007 21.3465 22.4998Z" fill="black"/>
</g>
</svg>
