<svg width="32" height="32" viewBox="0 0 32 32" fill="none" xmlns="http://www.w3.org/2000/svg">
<g filter="url(#filter0_b_1222_6461)">
<rect width="32" height="32" rx="6" fill="#09273B"/>
<path d="M15.1724 11.6744C15.3444 11.8271 15.3444 12.0759 15.1724 12.2285C15.0003 12.3811 14.7197 12.3812 14.5477 12.2285C14.3241 12.0302 14.1419 11.7895 14.0159 11.521H14.015C13.8935 11.2631 13.8273 10.9799 13.8273 10.6869C13.8273 10.4707 14.0251 10.2952 14.2689 10.2952C14.5128 10.2952 14.7105 10.4706 14.7105 10.6869C14.7105 10.8779 14.7529 11.0591 14.8283 11.2206H14.8274L14.8283 11.2223C14.9074 11.3895 15.0252 11.5438 15.1724 11.6744Z" fill="white"/>
<path d="M9.15466 25.5003C8.91087 25.5003 8.71303 25.3247 8.71303 25.1083C8.71303 24.8919 8.91082 24.7163 9.15466 24.7163H20.5629C20.8067 24.7163 21.0045 24.8919 21.0045 25.1083C21.0045 25.3247 20.8068 25.5003 20.5629 25.5003H9.15466Z" fill="white"/>
<path d="M14.5468 9.14466C14.7189 8.99198 14.9995 8.99198 15.1715 9.14466C15.3436 9.29726 15.3436 9.54618 15.1715 9.69878C15.0243 9.82938 14.9065 9.98362 14.8283 10.1509L14.8274 10.1526H14.8283C14.7529 10.3141 14.7105 10.4961 14.7105 10.6863C14.7105 10.9025 14.5128 11.078 14.2689 11.078C14.0251 11.078 13.8273 10.9026 13.8273 10.6863C13.8273 10.3933 13.8945 10.1109 14.015 9.85224H14.0159C14.1411 9.58374 14.3242 9.34216 14.5468 9.14466Z" fill="white"/>
<path d="M14.5495 7.16919C14.3774 7.01741 14.3765 6.76928 14.5476 6.61672C14.7188 6.46404 14.9984 6.46326 15.1705 6.61508C15.3968 6.81504 15.5799 7.0558 15.705 7.32261H15.7059C15.8274 7.5805 15.8936 7.8637 15.8936 8.15669C15.8936 8.37295 15.6958 8.54845 15.452 8.54845C15.2081 8.54845 15.0103 8.37299 15.0103 8.15669C15.0103 7.9657 14.968 7.78455 14.8926 7.62212H14.8935L14.8926 7.62048C14.8117 7.45244 14.6939 7.2982 14.5495 7.16919Z" fill="white"/>
<path d="M15.1723 9.69961C15.0002 9.8523 14.7196 9.8523 14.5476 9.69961C14.3755 9.54697 14.3755 9.29806 14.5476 9.1455C14.6948 9.0149 14.8135 8.86066 14.8917 8.69249L14.8926 8.69085H14.8917C14.9671 8.52932 15.0094 8.34727 15.0094 8.1571C15.0094 7.94088 15.2072 7.76538 15.4511 7.76538C15.6949 7.76538 15.8927 7.94084 15.8927 8.1571C15.8927 8.45009 15.8256 8.73252 15.705 8.99118H15.7041C15.578 9.25967 15.3958 9.5013 15.1723 9.69961Z" fill="white"/>
<path d="M21.6992 19.4135C21.4554 19.4135 21.2575 19.238 21.2575 19.0217C21.2575 18.8054 21.4553 18.63 21.6992 18.63H27.4088C27.9231 18.63 28.3822 18.4471 28.7115 18.1533C29.0446 17.8555 29.2488 17.4408 29.2488 16.9838C29.2488 16.539 29.0419 16.1343 28.7097 15.8412C28.3767 15.5482 27.9157 15.3654 27.4088 15.3654H23.7591C23.5153 15.3654 23.3175 15.1899 23.3175 14.9737C23.3175 14.7574 23.5152 14.5819 23.7591 14.5819H27.4088C28.1559 14.5819 28.8367 14.8529 29.3298 15.287C29.8248 15.722 30.1312 16.3235 30.1312 16.9838C30.1312 17.653 29.8294 18.2634 29.3354 18.7041C28.845 19.1424 28.1661 19.4142 27.408 19.4142H21.6992V19.4135Z" fill="white"/>
<path d="M21.4191 12.343C21.1753 12.343 20.9775 12.1675 20.9775 11.9513C20.9775 11.7349 21.1753 11.5595 21.4191 11.5595H27.4084C27.6521 11.5595 27.85 11.7349 27.85 11.9513V11.961C27.8491 12.4882 27.8077 13.013 27.7277 13.5312L27.7267 13.5329H27.7277C27.6467 14.0585 27.5234 14.5751 27.3643 15.077C27.299 15.2851 27.0552 15.4059 26.8215 15.3479C26.5869 15.29 26.4507 15.0737 26.516 14.8664C26.6633 14.4004 26.7783 13.9181 26.8546 13.426H26.8556C26.9089 13.0734 26.9448 12.7118 26.9595 12.3429L21.4191 12.343ZM25.918 16.3314C26.0165 16.1347 26.2777 16.0465 26.4995 16.1347C26.7212 16.222 26.8205 16.4538 26.7221 16.6505C26.4838 17.123 26.2106 17.5784 25.907 18.0134C25.6006 18.4526 25.2602 18.8729 24.8913 19.2695C24.7367 19.4359 24.4598 19.4597 24.2721 19.3225C24.0845 19.1854 24.0577 18.9397 24.2123 18.7733C24.5546 18.4044 24.872 18.0127 25.1581 17.603C25.4414 17.1957 25.6972 16.7705 25.918 16.3314ZM22.5618 20.2374C22.7485 20.1003 23.0273 20.1231 23.1828 20.2888C23.3373 20.4553 23.3116 20.7018 23.1248 20.8397C22.5461 21.264 21.9223 21.6461 21.2617 21.9782C20.6104 22.3063 19.9221 22.587 19.2092 22.8106C18.9792 22.8825 18.728 22.7755 18.6471 22.5723C18.5661 22.3691 18.6866 22.1455 18.9166 22.0737C19.5828 21.8639 20.2231 21.6028 20.8275 21.2992C21.4384 20.9906 22.0199 20.6348 22.5618 20.2374ZM16.7132 22.5674C16.9532 22.5348 17.1778 22.68 17.2145 22.8931C17.2513 23.1061 17.0876 23.3053 16.8474 23.3387C16.5117 23.3844 16.1814 23.4186 15.8593 23.4407C15.5226 23.4627 15.1877 23.475 14.8593 23.475C11.2722 23.475 8.02446 22.1847 5.67383 20.0995L5.64807 20.0742C3.31314 17.9906 1.86873 15.1194 1.86873 11.9512C1.86873 11.7349 2.06652 11.5594 2.31036 11.5594H2.3214H10.2961C10.5399 11.5594 10.7378 11.7349 10.7378 11.9512C10.7378 12.1675 10.54 12.3429 10.2961 12.3429H2.76021C2.8734 15.1439 4.19543 17.6714 6.27562 19.5257L6.29954 19.5445C8.49011 21.4877 11.517 22.6898 14.8603 22.6898C15.1823 22.6898 15.4942 22.6792 15.7941 22.6596C16.1133 22.6392 16.4216 22.6074 16.7132 22.5674Z" fill="white"/>
<path d="M9.54823 25.2841C9.43966 25.4768 9.17564 25.5552 8.9585 25.4589C8.74135 25.3626 8.65305 25.1282 8.76163 24.9354L9.33206 23.9228C9.44063 23.73 9.70465 23.6517 9.92179 23.748C10.1389 23.8444 10.2272 24.0787 10.1187 24.2715L9.54823 25.2841Z" fill="white"/>
<path d="M20.9564 24.9341C21.065 25.1267 20.9767 25.361 20.7595 25.4573C20.5424 25.5536 20.2783 25.4753 20.1697 25.2826L18.6683 22.6188C18.5596 22.4262 18.648 22.1919 18.8652 22.0956C19.0823 21.9993 19.3463 22.0777 19.4549 22.2703L20.9564 24.9341Z" fill="white"/>
<path d="M10.6082 11.6744C10.7802 11.8271 10.7802 12.0759 10.6082 12.2285C10.4362 12.3812 10.1556 12.3812 9.98348 12.2285C9.76084 12.0302 9.57773 11.7895 9.45263 11.521H9.4517C9.33025 11.2623 9.26402 10.9799 9.26402 10.6869C9.26402 10.4707 9.46182 10.2952 9.70565 10.2952C9.94949 10.2952 10.1473 10.4706 10.1473 10.6869C10.1473 10.8779 10.1896 11.0591 10.265 11.2206L10.266 11.2223C10.3442 11.3895 10.4619 11.5438 10.6082 11.6744Z" fill="white"/>
<path d="M9.98353 9.14466C10.1556 8.99198 10.4362 8.99198 10.6082 9.14466C10.7803 9.29726 10.7803 9.54618 10.6082 9.69878C10.462 9.82938 10.3442 9.98284 10.265 10.1509V10.1518H10.266C10.1896 10.3142 10.1473 10.4954 10.1473 10.6864C10.1473 10.9026 9.94949 11.0781 9.70565 11.0781C9.46182 11.0781 9.26402 10.9026 9.26402 10.6864C9.26402 10.3934 9.33122 10.111 9.4517 9.85228H9.45263C9.57778 9.58374 9.76089 9.34216 9.98353 9.14466Z" fill="white"/>
<path d="M9.984 7.16838C9.81193 7.01578 9.81193 6.76687 9.984 6.61427C10.156 6.46159 10.4366 6.46159 10.6087 6.61427C10.8323 6.81259 11.0144 7.05335 11.1405 7.3218C11.2619 7.57968 11.3282 7.86289 11.3282 8.15588C11.3282 8.37214 11.1304 8.54764 10.8865 8.54764C10.6427 8.54764 10.4449 8.37218 10.4449 8.15588C10.4449 7.96489 10.4025 7.78374 10.3271 7.62131H10.3281L10.3271 7.62045C10.2489 7.45322 10.1312 7.29898 9.984 7.16838Z" fill="white"/>
<path d="M10.6094 9.69711C10.4382 9.85053 10.1586 9.85135 9.98655 9.69957C9.81452 9.54775 9.8136 9.29966 9.9847 9.14706C10.13 9.01732 10.2487 8.86226 10.3279 8.69249L10.3288 8.69085H10.3279C10.4033 8.52932 10.4456 8.34809 10.4456 8.15714C10.4456 7.94088 10.6434 7.76538 10.8873 7.76538C11.1311 7.76538 11.3289 7.94084 11.3289 8.15714C11.3289 8.45009 11.2617 8.73252 11.1412 8.99118C11.016 9.258 10.833 9.4988 10.6094 9.69711Z" fill="white"/>
<path d="M19.7358 11.6744C19.9079 11.8271 19.9079 12.0759 19.7358 12.2285C19.5637 12.3812 19.2831 12.3812 19.1111 12.2285C18.8885 12.031 18.7054 11.7903 18.5793 11.521C18.4578 11.2623 18.3917 10.9799 18.3917 10.6869C18.3917 10.4707 18.5894 10.2952 18.8333 10.2952C19.0771 10.2952 19.2749 10.4706 19.2749 10.6869C19.2749 10.8779 19.3172 11.0591 19.3927 11.2215H19.3917L19.3927 11.2231C19.4708 11.3904 19.5885 11.5438 19.7358 11.6744Z" fill="white"/>
<path d="M19.1097 9.14466C19.2819 8.99198 19.5624 8.99198 19.7344 9.14466C19.9065 9.29726 19.9065 9.54618 19.7344 9.69878C19.5872 9.82938 19.4695 9.98284 19.3912 10.1501L19.3903 10.1518H19.3912C19.3158 10.3142 19.2734 10.4954 19.2734 10.6864C19.2734 10.9026 19.0756 11.0781 18.8318 11.0781C18.588 11.0781 18.3902 10.9026 18.3902 10.6864C18.3902 10.3934 18.4573 10.111 18.5779 9.85228C18.704 9.5821 18.8871 9.34216 19.1097 9.14466Z" fill="white"/>
<path d="M19.1102 7.16838C18.9381 7.01578 18.9381 6.76687 19.1102 6.61427C19.2823 6.46159 19.5628 6.46159 19.7349 6.61427C19.9574 6.81177 20.1406 7.05253 20.2666 7.3218H20.2676C20.3891 7.5805 20.4553 7.86375 20.4553 8.15588C20.4553 8.37214 20.2575 8.54764 20.0137 8.54764C19.7698 8.54764 19.572 8.37218 19.572 8.15588C19.572 7.96489 19.5297 7.78374 19.4543 7.62131H19.4552L19.4543 7.61967C19.3751 7.45322 19.2574 7.29898 19.1102 7.16838Z" fill="white"/>
<path d="M19.7355 9.69961C19.5634 9.8523 19.2828 9.8523 19.1108 9.69961C18.9388 9.54697 18.9388 9.29806 19.1108 9.1455C19.2581 9.0149 19.3758 8.86066 19.4541 8.69335L19.455 8.69172H19.4541C19.5295 8.52932 19.5718 8.34809 19.5718 8.1571C19.5718 7.94088 19.7696 7.76538 20.0135 7.76538C20.2573 7.76538 20.455 7.94084 20.455 8.1571C20.455 8.45009 20.3879 8.73252 20.2674 8.99118H20.2664C20.1412 9.26054 19.9581 9.5013 19.7355 9.69961Z" fill="white"/>
<path d="M16.8561 12.3442C16.6123 12.3442 16.4145 12.1686 16.4145 11.9522C16.4145 11.7358 16.6123 11.5602 16.8561 11.5602H19.423C19.6667 11.5602 19.8645 11.7358 19.8645 11.9522C19.8645 12.1686 19.6667 12.3442 19.423 12.3442H16.8561Z" fill="white"/>
<path d="M12.2929 12.3442C12.0491 12.3442 11.8512 12.1686 11.8512 11.9522C11.8512 11.7358 12.049 11.5602 12.2929 11.5602H14.8597C15.1035 11.5602 15.3013 11.7358 15.3013 11.9522C15.3013 12.1686 15.1035 12.3442 14.8597 12.3442H12.2929Z" fill="white"/>
<path d="M11.0345 19.9845C11.258 20.0677 11.3629 20.297 11.2691 20.4954C11.1752 20.6937 10.9167 20.7867 10.6931 20.7035C10.3629 20.5794 10.0501 20.4464 9.75839 20.3052L9.7354 20.2945C9.43637 20.1501 9.14751 19.9942 8.87241 19.8285C8.67092 19.7078 8.61753 19.4645 8.75372 19.285C8.88991 19.1062 9.16404 19.0588 9.36645 19.1797C9.62405 19.334 9.88812 19.4775 10.1558 19.6066L10.1788 19.6172C10.4659 19.7551 10.752 19.8784 11.0345 19.9845ZM7.91285 18.1155C8.08492 18.2682 8.08492 18.5171 7.91285 18.6696C7.74083 18.8223 7.46023 18.8223 7.28816 18.6696C7.05628 18.464 6.82445 18.2363 6.59724 17.9923C6.37552 17.7531 6.16761 17.5091 5.98173 17.2635C5.79128 17.0129 5.61007 16.7476 5.44261 16.4742L5.43158 16.4555C5.27331 16.1959 5.12706 15.9258 4.99549 15.6483C4.85657 15.3569 4.73512 15.0639 4.63209 14.7709L4.62567 14.7489C4.52448 14.4616 4.43891 14.1662 4.36987 13.8658C4.3211 13.6544 4.47475 13.448 4.71304 13.4047C4.95134 13.3614 5.18409 13.4986 5.23286 13.7091C5.29539 13.9842 5.37454 14.256 5.46654 14.522L5.473 14.5383C5.57141 14.819 5.68276 15.0892 5.80509 15.3455C5.9247 15.596 6.05812 15.8417 6.20437 16.0824L6.21818 16.1037C6.36721 16.3486 6.53282 16.5901 6.71223 16.8251C6.89257 17.0617 7.0821 17.287 7.2762 17.4951C7.46665 17.7018 7.6801 17.9091 7.91285 18.1155Z" fill="white"/>
</g>
<defs>
<filter id="filter0_b_1222_6461" x="-50" y="-50" width="132" height="132" filterUnits="userSpaceOnUse" color-interpolation-filters="sRGB">
<feFlood flood-opacity="0" result="BackgroundImageFix"/>
<feGaussianBlur in="BackgroundImageFix" stdDeviation="25"/>
<feComposite in2="SourceAlpha" operator="in" result="effect1_backgroundBlur_1222_6461"/>
<feBlend mode="normal" in="SourceGraphic" in2="effect1_backgroundBlur_1222_6461" result="shape"/>
</filter>
</defs>
</svg>
