<svg width="32" height="32" viewBox="0 0 32 32" fill="none" xmlns="http://www.w3.org/2000/svg">
<g filter="url(#filter0_b_1222_6211)">
<rect width="32" height="32" rx="6" fill="#09273B"/>
<path d="M9.75726 8.60823V9.06083H13.2042V8.60823C13.447 8.54504 13.6255 8.33618 13.6255 8.08757C13.6255 7.78896 13.3683 7.54688 13.051 7.54688H9.91046C9.59319 7.54688 9.33597 7.78896 9.33597 8.08757C9.33597 8.33618 9.51448 8.54508 9.75726 8.60823Z" fill="white"/>
<path d="M11.5 24.4528C12.3726 24.4528 13.1061 23.8836 13.3044 23.1191H9.69571C9.89403 23.8836 10.6275 24.4528 11.5 24.4528Z" fill="white"/>
<path d="M25.2302 10.1425H9.06788C8.75061 10.1425 8.49339 10.3845 8.49339 10.6832V18.7936H25.8047V10.6832C25.8047 10.3845 25.5475 10.1425 25.2302 10.1425ZM14.4918 15.073L13.7226 17.1086C13.6389 17.33 13.4176 17.4682 13.1814 17.4682C13.1174 17.4682 13.0525 17.4581 12.9889 17.4368C12.6899 17.3367 12.5338 17.0275 12.6401 16.7462L13.1365 15.4324H12.3341C12.1397 15.4324 11.9585 15.34 11.8525 15.1866C11.7465 15.0332 11.7301 14.8398 11.8089 14.6726L12.6879 12.807C12.8164 12.534 13.1559 12.4109 13.4459 12.5319C13.7359 12.6529 13.8668 12.9723 13.7382 13.2454L13.2172 14.351H13.9505C14.1372 14.351 14.3122 14.4364 14.4199 14.58C14.5276 14.7235 14.5543 14.9074 14.4918 15.073ZM22.9323 17.7123H17.7236C17.4063 17.7123 17.1491 17.4701 17.1491 17.1715C17.1491 16.8729 17.4063 16.6309 17.7236 16.6309H22.9323C23.2495 16.6309 23.5068 16.8729 23.5068 17.1715C23.5068 17.4701 23.2495 17.7123 22.9323 17.7123ZM22.9323 15.5494H17.7236C17.4063 15.5494 17.1491 15.3073 17.1491 15.0087C17.1491 14.7101 17.4063 14.468 17.7236 14.468H22.9323C23.2495 14.468 23.5068 14.7101 23.5068 15.0087C23.5068 15.3073 23.2495 15.5494 22.9323 15.5494ZM22.9323 13.3867H17.7236C17.4063 13.3867 17.1491 13.1446 17.1491 12.8459C17.1491 12.5473 17.4063 12.3052 17.7236 12.3052H22.9323C23.2495 12.3052 23.5068 12.5473 23.5068 12.8459C23.5068 13.1446 23.2495 13.3867 22.9323 13.3867Z" fill="white"/>
<path d="M8.49339 21.497C8.49339 21.7957 8.75061 22.0378 9.06788 22.0378H25.2302C25.5475 22.0378 25.8047 21.7957 25.8047 21.497V19.875H8.49339V21.497Z" fill="white"/>
<path d="M22.7985 24.4528C23.671 24.4528 24.4045 23.8836 24.6028 23.1191H20.9941C21.1924 23.8836 21.9259 24.4528 22.7985 24.4528Z" fill="white"/>
<path d="M6.1953 14.4859V18.6672C6.1953 19.3017 6.69556 19.8281 7.34428 19.9158V12.5724C6.65623 12.9642 6.1953 13.6753 6.1953 14.4859Z" fill="white"/>
</g>
<defs>
<filter id="filter0_b_1222_6211" x="-50" y="-50" width="132" height="132" filterUnits="userSpaceOnUse" color-interpolation-filters="sRGB">
<feFlood flood-opacity="0" result="BackgroundImageFix"/>
<feGaussianBlur in="BackgroundImageFix" stdDeviation="25"/>
<feComposite in2="SourceAlpha" operator="in" result="effect1_backgroundBlur_1222_6211"/>
<feBlend mode="normal" in="SourceGraphic" in2="effect1_backgroundBlur_1222_6211" result="shape"/>
</filter>
</defs>
</svg>
