<svg width="32" height="32" viewBox="0 0 32 32" fill="none" xmlns="http://www.w3.org/2000/svg">
<g filter="url(#filter0_b_1222_6394)">
<rect width="32" height="32" rx="6" fill="#09273B"/>
<path d="M14.0819 21.9877C13.0232 23.0198 13.0232 24.6939 14.0819 25.7261C15.1412 26.7579 16.8585 26.7579 17.9177 25.7261C18.9765 24.6939 18.9765 23.0198 17.9177 21.9877C16.8585 20.9556 15.1412 20.9556 14.0819 21.9877Z" fill="white"/>
<path d="M16.0004 15.7008C13.766 15.7008 11.6639 16.5491 10.0848 18.0898C9.46442 18.6942 9.46442 19.6738 10.0848 20.2778C10.7046 20.8822 11.7092 20.8822 12.3296 20.2778C13.3091 19.3218 14.6132 18.7954 16.0004 18.7954C17.3877 18.7954 18.6918 19.3218 19.6713 20.2778C19.9817 20.58 20.3889 20.731 20.794 20.731C21.2011 20.731 21.6062 20.58 21.9161 20.2778C22.5365 19.6738 22.5365 18.6942 21.9161 18.0898C20.3369 16.5491 18.2349 15.7008 16.0004 15.7008Z" fill="white"/>
<path d="M16.0006 10.6066C12.3691 10.6066 8.95518 11.9851 6.38786 14.4877C5.76801 15.0921 5.76801 16.0718 6.38786 16.6758C7.00817 17.2802 8.01332 17.2802 8.63263 16.6758C10.6003 14.7574 13.2173 13.701 16.0005 13.701C18.7826 13.701 21.3996 14.7574 23.3673 16.6758C23.6772 16.978 24.0844 17.1291 24.4895 17.1291C24.8966 17.1291 25.3022 16.978 25.6121 16.6758C26.2319 16.0718 26.2319 15.0921 25.6121 14.4877C23.0448 11.9851 19.632 10.6066 16.0006 10.6066Z" fill="white"/>
<path d="M29.3173 10.8772C25.7608 7.4095 21.0318 5.50012 16.0005 5.50012C10.9692 5.50012 6.24019 7.4095 2.68364 10.8772C2.06379 11.4817 2.06379 12.4614 2.68364 13.0653C2.99408 13.3676 3.40019 13.5185 3.8063 13.5185C4.21242 13.5185 4.61965 13.3676 4.92846 13.0653C7.88541 10.1822 11.8181 8.59461 16.0005 8.59461C20.1829 8.59461 24.1144 10.1822 27.0715 13.0653C27.6913 13.6697 28.6958 13.6692 29.3163 13.0658C29.9361 12.4614 29.9361 11.4817 29.3173 10.8772Z" fill="white"/>
</g>
<defs>
<filter id="filter0_b_1222_6394" x="-50" y="-50" width="132" height="132" filterUnits="userSpaceOnUse" color-interpolation-filters="sRGB">
<feFlood flood-opacity="0" result="BackgroundImageFix"/>
<feGaussianBlur in="BackgroundImageFix" stdDeviation="25"/>
<feComposite in2="SourceAlpha" operator="in" result="effect1_backgroundBlur_1222_6394"/>
<feBlend mode="normal" in="SourceGraphic" in2="effect1_backgroundBlur_1222_6394" result="shape"/>
</filter>
</defs>
</svg>
