<svg width="32" height="32" viewBox="0 0 32 32" fill="none" xmlns="http://www.w3.org/2000/svg">
<g filter="url(#filter0_b_1222_6475)">
<rect width="32" height="32" rx="6" fill="#09273B"/>
<path d="M2.38884 7.24988H29.6112V22.8055H2.38884V7.24988ZM3.84718 8.2221C3.57872 8.2221 3.36109 8.43979 3.36107 8.70822V20.3749C3.36109 20.6434 3.57872 20.861 3.84718 20.861H20.375C20.6435 20.861 20.8611 20.6434 20.8611 20.3749V8.70822C20.8611 8.43979 20.6435 8.2221 20.375 8.2221H3.84718ZM22.3195 8.2221C22.051 8.2221 21.8334 8.43979 21.8334 8.70822V12.5971C21.8334 12.9652 22.0606 13.0832 22.3195 13.0832H28.1528C28.4213 13.0832 28.6389 12.8656 28.6389 12.5971V8.70822C28.6389 8.43979 28.4213 8.2221 28.1528 8.2221H22.3195ZM4.33329 9.19433H19.8889V19.8888H4.33329V9.19433ZM22.8056 9.19433H27.6667V12.111H22.8056V9.19433ZM18.423 12.1053C18.1552 12.1053 17.9413 12.3294 17.9445 12.5971V16.486C17.9347 17.1434 18.926 17.1434 18.9167 16.486V12.5971C18.9196 12.3234 18.6966 12.101 18.423 12.1053ZM22.2853 15.0297C22.0303 15.0482 21.8327 15.2601 21.8334 15.5158C21.8334 15.7842 22.051 16.0019 22.3195 16.0019C22.5879 16.0019 22.8056 15.7842 22.8056 15.5158C22.8056 15.2473 22.5879 15.0297 22.3195 15.0297C22.3081 15.0291 22.2967 15.0291 22.2853 15.0297ZM24.2297 15.0297C23.9747 15.0482 23.7772 15.2601 23.7778 15.5158C23.7778 15.7842 23.9954 16.0019 24.2639 16.0019C24.5324 16.0019 24.75 15.7842 24.75 15.5158C24.75 15.2473 24.5324 15.0297 24.2639 15.0297C24.2525 15.0291 24.2411 15.0291 24.2297 15.0297ZM26.1742 15.0297C25.9192 15.0482 25.7216 15.2601 25.7223 15.5158C25.7223 15.7842 25.9399 16.0019 26.2084 16.0019C26.4768 16.0019 26.6945 15.7842 26.6945 15.5158C26.6945 15.2473 26.4768 15.0297 26.2084 15.0297C26.197 15.0291 26.1856 15.0291 26.1742 15.0297ZM28.1186 15.0297C27.8636 15.0482 27.6661 15.2601 27.6667 15.5158C27.6667 15.7842 27.8844 16.0019 28.1528 16.0019C28.4213 16.0019 28.6389 15.7842 28.6389 15.5158C28.6389 15.2473 28.4213 15.0297 28.1528 15.0297C28.1414 15.0291 28.13 15.0291 28.1186 15.0297ZM24.2639 16.9721C22.9273 16.9721 21.8334 18.0661 21.8334 19.4027C21.8334 20.7393 22.9273 21.8333 24.2639 21.8333C25.6005 21.8333 26.6945 20.7393 26.6945 19.4027C26.6945 18.0661 25.6005 16.9721 24.2639 16.9721ZM24.2639 17.9444C24.49 17.9444 24.7004 17.9988 24.8906 18.0887L22.9499 20.0293C22.8599 19.8393 22.8056 19.6287 22.8056 19.4027C22.8056 18.5916 23.4527 17.9444 24.2639 17.9444ZM28.1186 17.9444C27.8636 17.9628 27.6661 18.1748 27.6667 18.4305C27.6667 18.6989 27.8844 18.9166 28.1528 18.9166C28.4213 18.9166 28.6389 18.6989 28.6389 18.4305C28.6389 18.162 28.4213 17.9444 28.1528 17.9444C28.1414 17.944 28.13 17.944 28.1186 17.9444ZM25.578 18.7761C25.6675 18.9657 25.7223 19.1755 25.7223 19.4008C25.7223 20.212 25.0751 20.8591 24.2639 20.8591C24.0384 20.8591 23.8271 20.8046 23.6373 20.7147L25.578 18.7761ZM28.1186 19.8888C27.8636 19.9073 27.6661 20.1192 27.6667 20.3749C27.6667 20.6434 27.8844 20.861 28.1528 20.861C28.4213 20.861 28.6389 20.6434 28.6389 20.3749C28.6389 20.1065 28.4213 19.8888 28.1528 19.8888C28.1414 19.8884 28.13 19.8884 28.1186 19.8888ZM5.30552 23.7778H6.27774V24.7501H5.30552V23.7778ZM25.7223 23.7778H26.6945V24.7501H25.7223V23.7778Z" fill="white"/>
</g>
<defs>
<filter id="filter0_b_1222_6475" x="-50" y="-50" width="132" height="132" filterUnits="userSpaceOnUse" color-interpolation-filters="sRGB">
<feFlood flood-opacity="0" result="BackgroundImageFix"/>
<feGaussianBlur in="BackgroundImageFix" stdDeviation="25"/>
<feComposite in2="SourceAlpha" operator="in" result="effect1_backgroundBlur_1222_6475"/>
<feBlend mode="normal" in="SourceGraphic" in2="effect1_backgroundBlur_1222_6475" result="shape"/>
</filter>
</defs>
</svg>
