<svg width="30" height="30" viewBox="0 0 30 30" fill="none" xmlns="http://www.w3.org/2000/svg">
<g id="Group 2424">
<ellipse id="Ellipse 295" cx="12.0916" cy="23.5555" rx="10.6155" ry="5.4444" stroke="black" stroke-width="2" stroke-linejoin="round"/>
<ellipse id="Ellipse 296" cx="12.0919" cy="7.22226" rx="6.066" ry="6.22217" stroke="black" stroke-width="2" stroke-linejoin="round"/>
<path id="Subtract" fill-rule="evenodd" clip-rule="evenodd" d="M19.467 12.6885C19.1286 13.1681 18.7469 13.6134 18.3276 14.0183C18.7571 14.1331 19.2084 14.1943 19.6745 14.1943C22.6192 14.1943 24.974 11.7511 24.974 8.7777C24.974 6.05288 22.9965 3.77334 20.3997 3.41119C20.633 3.94554 20.8188 4.5065 20.9514 5.08841C22.414 5.62702 23.474 7.06493 23.474 8.7777C23.474 10.9589 21.755 12.6943 19.6745 12.6943C19.6049 12.6943 19.5358 12.6924 19.467 12.6885Z" fill="#525252"/>
<path id="Subtract_2" fill-rule="evenodd" clip-rule="evenodd" d="M25.7129 24.1029C25.6518 24.7098 25.4898 25.2995 25.2372 25.8656C25.65 25.7374 26.0401 25.5951 26.4037 25.4397C27.2824 25.0641 28.0416 24.5976 28.592 24.0415C29.1456 23.4821 29.524 22.7915 29.524 22.0002C29.524 21.2089 29.1456 20.5182 28.592 19.9589C28.0416 19.4027 27.2824 18.9363 26.4037 18.5607C25.1031 18.0048 23.4644 17.6156 21.6528 17.4502C22.5593 18.0081 23.3421 18.6446 23.9731 19.3422C24.655 19.5071 25.2741 19.7092 25.8142 19.94C26.582 20.2682 27.1554 20.6397 27.5258 21.014C27.8932 21.3852 28.024 21.7176 28.024 22.0002C28.024 22.2827 27.8932 22.6152 27.5258 22.9863C27.1554 23.3607 26.582 23.7322 25.8142 24.0604C25.7807 24.0747 25.747 24.0888 25.7129 24.1029Z" fill="#525252"/>
</g>
</svg>
