<svg width="32" height="32" viewBox="0 0 32 32" fill="none" xmlns="http://www.w3.org/2000/svg">
<g filter="url(#filter0_b_1222_6438)">
<rect width="32" height="32" rx="6" fill="#09273B"/>
<path d="M20.6669 14.1328C19.8937 14.1328 19.2669 14.8491 19.2669 15.7328C19.2669 16.6165 19.8937 17.3328 20.6669 17.3328C21.4402 17.3328 22.0669 16.6165 22.0669 15.7328C22.0669 14.8491 21.4402 14.1328 20.6669 14.1328ZM20.6669 16.2661C20.4093 16.2661 20.2003 16.0272 20.2003 15.7328C20.2003 15.4384 20.4093 15.1995 20.6669 15.1995C20.9245 15.1995 21.1336 15.4384 21.1336 15.7328C21.1336 16.0272 20.9245 16.2661 20.6669 16.2661Z" fill="white"/>
<path d="M11.8005 18.9338H3.86719V19.4672H11.8005V18.9338Z" fill="white"/>
<path d="M11.8005 17.8674H3.86719V18.4008H11.8005V17.8674Z" fill="white"/>
<path d="M11.8005 16.8003H3.86719V17.3336H11.8005V16.8003Z" fill="white"/>
<path d="M11.8005 15.7339H3.86719V16.2672H11.8005V15.7339Z" fill="white"/>
<path d="M11.8005 14.6669H3.86719V15.2002H11.8005V14.6669Z" fill="white"/>
<path d="M11.8005 13.5999H3.86719V14.1332H11.8005V13.5999Z" fill="white"/>
<path d="M11.8005 12.5341H3.86719V13.0674H11.8005V12.5341Z" fill="white"/>
<path d="M28.6 9.86671H22.8964C22.2127 9.52644 21.46 9.33337 20.6667 9.33337C19.8733 9.33337 19.1206 9.52644 18.4374 9.86671H3.4C2.62813 9.86671 2 10.5846 2 11.4667V20C2 20.8822 2.62813 21.6 3.4 21.6H3.86667V22.6667H5.26667V21.6H18.4374C19.1206 21.9403 19.8733 22.1334 20.6667 22.1334C21.46 22.1334 22.2127 21.9403 22.8964 21.6H26.7333V22.6667H28.1333V21.6H28.6C29.3719 21.6 30 20.8822 30 20V11.4667C30 10.5846 29.3719 9.86671 28.6 9.86671ZM3.4 20.5334C3.1424 20.5334 2.93333 20.2939 2.93333 20V11.4667C2.93333 11.1728 3.1424 10.9334 3.4 10.9334H17.7206C16.3985 11.9947 15.5333 13.7467 15.5333 15.7334C15.5333 17.72 16.3985 19.472 17.7206 20.5334H3.4ZM20.6667 21.0667C18.0888 21.0667 16 18.679 16 15.7334C16 12.7878 18.0888 10.4 20.6667 10.4C23.2445 10.4 25.3333 12.7878 25.3333 15.7334C25.3333 18.679 23.2445 21.0667 20.6667 21.0667ZM29.0667 20C29.0667 20.2939 28.8576 20.5334 28.6 20.5334H23.6127C24.9348 19.472 25.8 17.72 25.8 15.7334C25.8 13.7467 24.9348 11.9947 23.6127 10.9334H28.6C28.8576 10.9334 29.0667 11.1728 29.0667 11.4667V20Z" fill="white"/>
<path d="M20.6664 12.0002C18.8618 12.0002 17.3997 13.6722 17.3997 15.7336C17.3997 17.7949 18.8618 19.4669 20.6664 19.4669C22.471 19.4669 23.9331 17.7949 23.9331 15.7336C23.9331 13.6722 22.471 12.0002 20.6664 12.0002ZM20.6664 18.9336C19.1199 18.9336 17.8664 17.5005 17.8664 15.7336C17.8664 13.9666 19.1199 12.5336 20.6664 12.5336C22.2129 12.5336 23.4664 13.9666 23.4664 15.7336C23.4664 17.5005 22.2129 18.9336 20.6664 18.9336Z" fill="white"/>
<path d="M27.6664 11.467C27.1512 11.467 26.7331 11.9449 26.7331 12.5337C26.7331 13.1225 27.1512 13.6004 27.6664 13.6004C28.1816 13.6004 28.5997 13.1225 28.5997 12.5337C28.5997 11.9449 28.1816 11.467 27.6664 11.467ZM27.6664 13.067C27.4088 13.067 27.1997 12.8281 27.1997 12.5337C27.1997 12.2393 27.4088 12.0004 27.6664 12.0004C27.924 12.0004 28.1331 12.2393 28.1331 12.5337C28.1331 12.8281 27.924 13.067 27.6664 13.067Z" fill="white"/>
</g>
<defs>
<filter id="filter0_b_1222_6438" x="-50" y="-50" width="132" height="132" filterUnits="userSpaceOnUse" color-interpolation-filters="sRGB">
<feFlood flood-opacity="0" result="BackgroundImageFix"/>
<feGaussianBlur in="BackgroundImageFix" stdDeviation="25"/>
<feComposite in2="SourceAlpha" operator="in" result="effect1_backgroundBlur_1222_6438"/>
<feBlend mode="normal" in="SourceGraphic" in2="effect1_backgroundBlur_1222_6438" result="shape"/>
</filter>
</defs>
</svg>
