<svg width="32" height="32" viewBox="0 0 32 32" fill="none" xmlns="http://www.w3.org/2000/svg">
<g filter="url(#filter0_b_1222_6385)">
<rect width="32" height="32" rx="6" fill="#09273B"/>
<path d="M6.53779 26.9373C6.26179 26.9373 6.01379 26.8893 5.79379 26.7933C5.57779 26.6933 5.40779 26.5573 5.28379 26.3853C5.15979 26.2093 5.09579 26.0073 5.09179 25.7793H5.67379C5.69379 25.9753 5.77379 26.1413 5.91379 26.2773C6.05779 26.4093 6.26579 26.4753 6.53779 26.4753C6.79779 26.4753 7.00179 26.4113 7.14979 26.2833C7.30179 26.1513 7.37779 25.9833 7.37779 25.7793C7.37779 25.6193 7.33379 25.4893 7.24579 25.3893C7.15779 25.2893 7.04779 25.2133 6.91579 25.1613C6.78379 25.1093 6.60579 25.0533 6.38179 24.9933C6.10579 24.9213 5.88379 24.8493 5.71579 24.7773C5.55179 24.7053 5.40979 24.5933 5.28979 24.4413C5.17379 24.2853 5.11579 24.0773 5.11579 23.8173C5.11579 23.5893 5.17379 23.3873 5.28979 23.2113C5.40579 23.0353 5.56779 22.8993 5.77579 22.8033C5.98779 22.7073 6.22979 22.6593 6.50179 22.6593C6.89379 22.6593 7.21379 22.7573 7.46179 22.9533C7.71379 23.1493 7.85579 23.4093 7.88779 23.7333H7.28779C7.26779 23.5733 7.18379 23.4333 7.03579 23.3133C6.88779 23.1893 6.69179 23.1273 6.44779 23.1273C6.21979 23.1273 6.03379 23.1873 5.88979 23.3073C5.74579 23.4233 5.67379 23.5873 5.67379 23.7993C5.67379 23.9513 5.71579 24.0753 5.79979 24.1713C5.88779 24.2673 5.99379 24.3413 6.11779 24.3933C6.24579 24.4413 6.42379 24.4973 6.65179 24.5613C6.92779 24.6373 7.14979 24.7133 7.31779 24.7893C7.48579 24.8613 7.62979 24.9753 7.74979 25.1313C7.86979 25.2833 7.92979 25.4913 7.92979 25.7553C7.92979 25.9593 7.87579 26.1513 7.76779 26.3313C7.65979 26.5113 7.49979 26.6573 7.28779 26.7693C7.07579 26.8813 6.82579 26.9373 6.53779 26.9373ZM9.39927 24.0573V25.9953C9.39927 26.1553 9.43327 26.2693 9.50127 26.3373C9.56927 26.4013 9.68727 26.4333 9.85527 26.4333H10.2573V26.8953H9.76527C9.46127 26.8953 9.23327 26.8253 9.08127 26.6853C8.92927 26.5453 8.85327 26.3153 8.85327 25.9953V24.0573H8.42727V23.6073H8.85327V22.7793H9.39927V23.6073H10.2573V24.0573H9.39927ZM10.7148 25.2393C10.7148 24.9033 10.7828 24.6093 10.9188 24.3573C11.0548 24.1013 11.2408 23.9033 11.4768 23.7633C11.7168 23.6233 11.9828 23.5533 12.2748 23.5533C12.5628 23.5533 12.8128 23.6153 13.0248 23.7393C13.2368 23.8633 13.3948 24.0193 13.4988 24.2073V23.6073H14.0508V26.8953H13.4988V26.2833C13.3908 26.4753 13.2288 26.6353 13.0128 26.7633C12.8008 26.8873 12.5528 26.9493 12.2688 26.9493C11.9768 26.9493 11.7128 26.8773 11.4768 26.7333C11.2408 26.5893 11.0548 26.3873 10.9188 26.1273C10.7828 25.8673 10.7148 25.5713 10.7148 25.2393ZM13.4988 25.2453C13.4988 24.9973 13.4488 24.7813 13.3488 24.5973C13.2488 24.4133 13.1128 24.2733 12.9408 24.1773C12.7728 24.0773 12.5868 24.0273 12.3828 24.0273C12.1788 24.0273 11.9928 24.0753 11.8248 24.1713C11.6568 24.2673 11.5228 24.4073 11.4228 24.5913C11.3228 24.7753 11.2728 24.9913 11.2728 25.2393C11.2728 25.4913 11.3228 25.7113 11.4228 25.8993C11.5228 26.0833 11.6568 26.2253 11.8248 26.3253C11.9928 26.4213 12.1788 26.4693 12.3828 26.4693C12.5868 26.4693 12.7728 26.4213 12.9408 26.3253C13.1128 26.2253 13.2488 26.0833 13.3488 25.8993C13.4488 25.7113 13.4988 25.4933 13.4988 25.2453ZM15.5195 24.1413C15.6155 23.9533 15.7515 23.8073 15.9275 23.7033C16.1075 23.5993 16.3255 23.5473 16.5815 23.5473V24.1113H16.4375C15.8255 24.1113 15.5195 24.4433 15.5195 25.1073V26.8953H14.9735V23.6073H15.5195V24.1413ZM17.7578 22.4553V26.8953H17.2118V22.4553H17.7578ZM18.9703 23.0733C18.8663 23.0733 18.7783 23.0373 18.7063 22.9653C18.6343 22.8933 18.5983 22.8053 18.5983 22.7013C18.5983 22.5973 18.6343 22.5093 18.7063 22.4373C18.7783 22.3653 18.8663 22.3293 18.9703 22.3293C19.0703 22.3293 19.1543 22.3653 19.2223 22.4373C19.2943 22.5093 19.3303 22.5973 19.3303 22.7013C19.3303 22.8053 19.2943 22.8933 19.2223 22.9653C19.1543 23.0373 19.0703 23.0733 18.9703 23.0733ZM19.2343 23.6073V26.8953H18.6883V23.6073H19.2343ZM21.7669 23.5473C22.1669 23.5473 22.4909 23.6693 22.7389 23.9133C22.9869 24.1533 23.1109 24.5013 23.1109 24.9573V26.8953H22.5709V25.0353C22.5709 24.7073 22.4889 24.4573 22.3249 24.2853C22.1609 24.1093 21.9369 24.0213 21.6529 24.0213C21.3649 24.0213 21.1349 24.1113 20.9629 24.2913C20.7949 24.4713 20.7109 24.7333 20.7109 25.0773V26.8953H20.1649V23.6073H20.7109V24.0753C20.8189 23.9073 20.9649 23.7773 21.1489 23.6853C21.3369 23.5933 21.5429 23.5473 21.7669 23.5473ZM25.8388 26.8953L24.5488 25.4433V26.8953H24.0028V22.4553H24.5488V25.0653L25.8148 23.6073H26.5768L25.0288 25.2453L26.5828 26.8953H25.8388Z" fill="white"/>
<path d="M3.3241 9.90918L9.13524 9.81093L13.3736 12.3636L10.1658 14.0593L3.3241 9.90918Z" fill="white"/>
<path d="M25.7785 20.1012L19.8788 20.1012L14.6746 16.9202L17.6116 15.1269L25.7785 20.1012Z" fill="white"/>
<path d="M13.5349 13.6122L17.4572 11.949L20.3413 10.8932L23.3744 10.0747L24.2406 9.9034L25.5516 9.56352L28.1398 8.91361L29.8106 8.91373L28.1398 9.56352L27.0257 9.9034L25.5516 10.3808L21.4554 11.883L18.6518 13.0103L14.5333 15.1329L11.8233 16.907L9.82643 18.4118L8.43578 19.6473L4.33511 19.6473L6.95597 17.5089L10.183 15.4338L13.5349 13.6122Z" fill="white"/>
</g>
<defs>
<filter id="filter0_b_1222_6385" x="-50" y="-50" width="132" height="132" filterUnits="userSpaceOnUse" color-interpolation-filters="sRGB">
<feFlood flood-opacity="0" result="BackgroundImageFix"/>
<feGaussianBlur in="BackgroundImageFix" stdDeviation="25"/>
<feComposite in2="SourceAlpha" operator="in" result="effect1_backgroundBlur_1222_6385"/>
<feBlend mode="normal" in="SourceGraphic" in2="effect1_backgroundBlur_1222_6385" result="shape"/>
</filter>
</defs>
</svg>
