<svg width="20" height="20" viewBox="0 0 20 20" fill="none" xmlns="http://www.w3.org/2000/svg">
<path d="M10.1096 1C14.404 1.78118 17.5273 5.29649 18.3081 9.20239" stroke="black" stroke-width="1.5"/>
<path d="M10.1096 4.646C12.3869 5.02574 14.3607 7.07634 14.6643 9.20288" stroke="black" stroke-width="1.5"/>
<path d="M10.1096 8.29199C10.565 8.36794 10.9598 8.77806 11.0205 9.20337" stroke="black" stroke-width="1.5"/>
<path d="M5.87198 10.3279C6.58762 11.5077 7.8334 12.6917 9.01061 13.577C9.73674 14.1231 10.7384 13.9941 11.3851 13.3559L11.6902 13.0548C11.8153 12.9313 12.0382 12.8491 12.2779 12.7959C12.7913 12.6821 13.3025 12.9159 13.6767 13.2853L15.5468 15.1311C15.7834 15.3645 16.1197 15.6965 16.0089 16.2099C15.9634 16.4209 15.8191 16.5925 15.6655 16.7441L14.8456 17.5533C13.7938 18.5915 13.4077 19.205 12.3914 18.9375C7.13228 17.5533 3.62622 13.7469 1.52258 9.94042C1.04052 9.06795 0.821939 7.17228 1.17198 6.48C1.32925 6.16894 2.33693 5.01905 3.04839 4.28701C3.1976 4.13349 3.3716 3.99074 3.58446 3.96789C4.04569 3.91838 4.4869 4.21501 4.67804 4.40366L6.78168 6.47991C7.34265 7.03358 7.01541 7.63339 6.78168 7.86408L6.22645 8.41208C5.70439 8.92735 5.49157 9.7007 5.87198 10.3279Z" stroke="black" stroke-width="1.5"/>
</svg>
